<mxfile host="app.diagrams.net" modified="2024-02-16T20:14:24.053Z" agent="Mozilla/5.0 (Windows NT 10.0; Win64; x64) AppleWebKit/537.36 (KHTML, like Gecko) Chrome/121.0.0.0 Safari/537.36" etag="TqlDcoZN7vCOZnQzkCVc" version="23.1.4" type="google">
  <diagram name="Page-1" id="2YBvvXClWsGukQMizWep">
    <mxGraphModel grid="1" page="1" gridSize="10" guides="1" tooltips="1" connect="1" arrows="1" fold="1" pageScale="1" pageWidth="1100" pageHeight="850" math="0" shadow="0">
      <root>
        <mxCell id="0" />
        <mxCell id="1" parent="0" />
        <mxCell id="aM9ryv3xv72pqoxQDRHE-1" value="TrucoView" style="shape=umlLifeline;perimeter=lifelinePerimeter;whiteSpace=wrap;html=1;container=0;dropTarget=0;collapsible=0;recursiveResize=0;outlineConnect=0;portConstraint=eastwest;newEdgeStyle={&quot;edgeStyle&quot;:&quot;elbowEdgeStyle&quot;,&quot;elbow&quot;:&quot;vertical&quot;,&quot;curved&quot;:0,&quot;rounded&quot;:0};" vertex="1" parent="1">
          <mxGeometry x="110" y="40" width="100" height="600" as="geometry" />
        </mxCell>
        <mxCell id="aM9ryv3xv72pqoxQDRHE-2" value="" style="html=1;points=[];perimeter=orthogonalPerimeter;outlineConnect=0;targetShapes=umlLifeline;portConstraint=eastwest;newEdgeStyle={&quot;edgeStyle&quot;:&quot;elbowEdgeStyle&quot;,&quot;elbow&quot;:&quot;vertical&quot;,&quot;curved&quot;:0,&quot;rounded&quot;:0};" vertex="1" parent="aM9ryv3xv72pqoxQDRHE-1">
          <mxGeometry x="45" y="70" width="10" height="90" as="geometry" />
        </mxCell>
        <mxCell id="aM9ryv3xv72pqoxQDRHE-5" value="Round" style="shape=umlLifeline;perimeter=lifelinePerimeter;whiteSpace=wrap;html=1;container=0;dropTarget=0;collapsible=0;recursiveResize=0;outlineConnect=0;portConstraint=eastwest;newEdgeStyle={&quot;edgeStyle&quot;:&quot;elbowEdgeStyle&quot;,&quot;elbow&quot;:&quot;vertical&quot;,&quot;curved&quot;:0,&quot;rounded&quot;:0};" vertex="1" parent="1">
          <mxGeometry x="380" y="40" width="100" height="600" as="geometry" />
        </mxCell>
        <mxCell id="aM9ryv3xv72pqoxQDRHE-6" value="" style="html=1;points=[];perimeter=orthogonalPerimeter;outlineConnect=0;targetShapes=umlLifeline;portConstraint=eastwest;newEdgeStyle={&quot;edgeStyle&quot;:&quot;elbowEdgeStyle&quot;,&quot;elbow&quot;:&quot;vertical&quot;,&quot;curved&quot;:0,&quot;rounded&quot;:0};" vertex="1" parent="aM9ryv3xv72pqoxQDRHE-5">
          <mxGeometry x="45" y="80" width="10" height="450" as="geometry" />
        </mxCell>
        <mxCell id="aM9ryv3xv72pqoxQDRHE-7" value="PlayCard()" style="html=1;verticalAlign=bottom;endArrow=block;edgeStyle=elbowEdgeStyle;elbow=vertical;curved=0;rounded=0;" edge="1" parent="1">
          <mxGeometry relative="1" as="geometry">
            <mxPoint x="170" y="170" as="sourcePoint" />
            <Array as="points">
              <mxPoint x="265" y="170" />
            </Array>
            <mxPoint x="280" y="170" as="targetPoint" />
            <mxPoint as="offset" />
          </mxGeometry>
        </mxCell>
        <mxCell id="qVcCqozDAweR0QlI1ANQ-1" value="Actor" style="shape=umlActor;verticalLabelPosition=bottom;verticalAlign=top;html=1;outlineConnect=0;" vertex="1" parent="1">
          <mxGeometry x="40" y="40" width="30" height="60" as="geometry" />
        </mxCell>
        <mxCell id="qVcCqozDAweR0QlI1ANQ-3" value="" style="endArrow=none;dashed=1;html=1;rounded=0;" edge="1" parent="1">
          <mxGeometry width="50" height="50" relative="1" as="geometry">
            <mxPoint x="55" y="630" as="sourcePoint" />
            <mxPoint x="54.5" y="130" as="targetPoint" />
            <Array as="points">
              <mxPoint x="54.5" y="200" />
            </Array>
          </mxGeometry>
        </mxCell>
        <mxCell id="qVcCqozDAweR0QlI1ANQ-5" value="CardStrengthCalculator" style="shape=umlLifeline;perimeter=lifelinePerimeter;whiteSpace=wrap;html=1;container=0;dropTarget=0;collapsible=0;recursiveResize=0;outlineConnect=0;portConstraint=eastwest;newEdgeStyle={&quot;edgeStyle&quot;:&quot;elbowEdgeStyle&quot;,&quot;elbow&quot;:&quot;vertical&quot;,&quot;curved&quot;:0,&quot;rounded&quot;:0};" vertex="1" parent="1">
          <mxGeometry x="730" y="40" width="140" height="600" as="geometry" />
        </mxCell>
        <mxCell id="qVcCqozDAweR0QlI1ANQ-6" value="" style="html=1;points=[];perimeter=orthogonalPerimeter;outlineConnect=0;targetShapes=umlLifeline;portConstraint=eastwest;newEdgeStyle={&quot;edgeStyle&quot;:&quot;elbowEdgeStyle&quot;,&quot;elbow&quot;:&quot;vertical&quot;,&quot;curved&quot;:0,&quot;rounded&quot;:0};" vertex="1" parent="qVcCqozDAweR0QlI1ANQ-5">
          <mxGeometry x="65" y="410" width="10" height="50" as="geometry" />
        </mxCell>
        <mxCell id="qVcCqozDAweR0QlI1ANQ-8" value="PlayCard()" style="html=1;verticalAlign=bottom;endArrow=block;edgeStyle=elbowEdgeStyle;elbow=vertical;curved=0;rounded=0;" edge="1" parent="1" target="qVcCqozDAweR0QlI1ANQ-10">
          <mxGeometry relative="1" as="geometry">
            <mxPoint x="440" y="230" as="sourcePoint" />
            <Array as="points">
              <mxPoint x="535" y="230" />
            </Array>
            <mxPoint x="950" y="230" as="targetPoint" />
            <mxPoint as="offset" />
          </mxGeometry>
        </mxCell>
        <mxCell id="qVcCqozDAweR0QlI1ANQ-9" value="HumanPlayer" style="shape=umlLifeline;perimeter=lifelinePerimeter;whiteSpace=wrap;html=1;container=0;dropTarget=0;collapsible=0;recursiveResize=0;outlineConnect=0;portConstraint=eastwest;newEdgeStyle={&quot;edgeStyle&quot;:&quot;elbowEdgeStyle&quot;,&quot;elbow&quot;:&quot;vertical&quot;,&quot;curved&quot;:0,&quot;rounded&quot;:0};" vertex="1" parent="1">
          <mxGeometry x="590" y="40" width="100" height="600" as="geometry" />
        </mxCell>
        <mxCell id="qVcCqozDAweR0QlI1ANQ-10" value="" style="html=1;points=[];perimeter=orthogonalPerimeter;outlineConnect=0;targetShapes=umlLifeline;portConstraint=eastwest;newEdgeStyle={&quot;edgeStyle&quot;:&quot;elbowEdgeStyle&quot;,&quot;elbow&quot;:&quot;vertical&quot;,&quot;curved&quot;:0,&quot;rounded&quot;:0};" vertex="1" parent="qVcCqozDAweR0QlI1ANQ-9">
          <mxGeometry x="45" y="150" width="10" height="110" as="geometry" />
        </mxCell>
        <mxCell id="qVcCqozDAweR0QlI1ANQ-13" value="NewCardIsStronger()" style="html=1;verticalAlign=bottom;endArrow=block;edgeStyle=orthogonalEdgeStyle;elbow=vertical;rounded=0;" edge="1" parent="1">
          <mxGeometry x="0.0323" y="10" relative="1" as="geometry">
            <mxPoint x="445" y="290" as="sourcePoint" />
            <Array as="points">
              <mxPoint x="445" y="291" />
              <mxPoint x="505" y="291" />
              <mxPoint x="505" y="320" />
            </Array>
            <mxPoint x="440" y="320" as="targetPoint" />
            <mxPoint as="offset" />
          </mxGeometry>
        </mxCell>
        <mxCell id="qVcCqozDAweR0QlI1ANQ-14" value="NextPlayer()" style="html=1;verticalAlign=bottom;endArrow=block;edgeStyle=orthogonalEdgeStyle;elbow=vertical;rounded=0;" edge="1" parent="1">
          <mxGeometry x="0.0323" y="10" relative="1" as="geometry">
            <mxPoint x="445" y="340" as="sourcePoint" />
            <Array as="points">
              <mxPoint x="445" y="341" />
              <mxPoint x="505" y="341" />
              <mxPoint x="505" y="370" />
            </Array>
            <mxPoint x="440" y="370" as="targetPoint" />
            <mxPoint as="offset" />
          </mxGeometry>
        </mxCell>
        <mxCell id="qVcCqozDAweR0QlI1ANQ-15" value="DetermineRoundIsOver()" style="html=1;verticalAlign=bottom;endArrow=block;edgeStyle=orthogonalEdgeStyle;elbow=vertical;rounded=0;" edge="1" parent="1">
          <mxGeometry x="0.0323" y="10" relative="1" as="geometry">
            <mxPoint x="445" y="420" as="sourcePoint" />
            <Array as="points">
              <mxPoint x="445" y="421" />
              <mxPoint x="505" y="421" />
              <mxPoint x="505" y="450" />
            </Array>
            <mxPoint x="440" y="450" as="targetPoint" />
            <mxPoint as="offset" />
          </mxGeometry>
        </mxCell>
        <mxCell id="qVcCqozDAweR0QlI1ANQ-17" value="RemoveSelectedCard()" style="html=1;verticalAlign=bottom;endArrow=block;edgeStyle=elbowEdgeStyle;elbow=vertical;curved=0;rounded=0;" edge="1" parent="1">
          <mxGeometry x="0.0036" relative="1" as="geometry">
            <mxPoint x="440" y="550" as="sourcePoint" />
            <Array as="points">
              <mxPoint x="535" y="550" />
            </Array>
            <mxPoint x="980" y="550" as="targetPoint" />
            <mxPoint as="offset" />
          </mxGeometry>
        </mxCell>
        <mxCell id="qVcCqozDAweR0QlI1ANQ-20" value="StartPlayingThread()" style="html=1;verticalAlign=bottom;endArrow=block;edgeStyle=orthogonalEdgeStyle;elbow=vertical;rounded=0;" edge="1" parent="1">
          <mxGeometry x="0.0323" y="10" relative="1" as="geometry">
            <mxPoint x="445" y="130" as="sourcePoint" />
            <Array as="points">
              <mxPoint x="445" y="131" />
              <mxPoint x="505" y="131" />
              <mxPoint x="505" y="160" />
            </Array>
            <mxPoint x="440" y="160" as="targetPoint" />
            <mxPoint as="offset" />
          </mxGeometry>
        </mxCell>
        <mxCell id="qVcCqozDAweR0QlI1ANQ-21" value="TryPlayCard()" style="html=1;verticalAlign=bottom;endArrow=block;edgeStyle=orthogonalEdgeStyle;elbow=vertical;rounded=0;" edge="1" parent="1">
          <mxGeometry x="0.0323" y="10" relative="1" as="geometry">
            <mxPoint x="165" y="120" as="sourcePoint" />
            <Array as="points">
              <mxPoint x="165" y="121" />
              <mxPoint x="225" y="121" />
              <mxPoint x="225" y="150" />
            </Array>
            <mxPoint x="160" y="150" as="targetPoint" />
            <mxPoint as="offset" />
          </mxGeometry>
        </mxCell>
        <mxCell id="qVcCqozDAweR0QlI1ANQ-22" value="TrucoController" style="shape=umlLifeline;perimeter=lifelinePerimeter;whiteSpace=wrap;html=1;container=0;dropTarget=0;collapsible=0;recursiveResize=0;outlineConnect=0;portConstraint=eastwest;newEdgeStyle={&quot;edgeStyle&quot;:&quot;elbowEdgeStyle&quot;,&quot;elbow&quot;:&quot;vertical&quot;,&quot;curved&quot;:0,&quot;rounded&quot;:0};" vertex="1" parent="1">
          <mxGeometry x="240" y="40" width="100" height="600" as="geometry" />
        </mxCell>
        <mxCell id="qVcCqozDAweR0QlI1ANQ-23" value="" style="html=1;points=[];perimeter=orthogonalPerimeter;outlineConnect=0;targetShapes=umlLifeline;portConstraint=eastwest;newEdgeStyle={&quot;edgeStyle&quot;:&quot;elbowEdgeStyle&quot;,&quot;elbow&quot;:&quot;vertical&quot;,&quot;curved&quot;:0,&quot;rounded&quot;:0};" vertex="1" parent="qVcCqozDAweR0QlI1ANQ-22">
          <mxGeometry x="45" y="80" width="10" height="120" as="geometry" />
        </mxCell>
        <mxCell id="qVcCqozDAweR0QlI1ANQ-24" value="NotifyPlayingAction()" style="html=1;verticalAlign=bottom;endArrow=block;edgeStyle=elbowEdgeStyle;elbow=vertical;curved=0;rounded=0;" edge="1" parent="1">
          <mxGeometry relative="1" as="geometry">
            <mxPoint x="300" y="190" as="sourcePoint" />
            <Array as="points">
              <mxPoint x="385" y="190" />
            </Array>
            <mxPoint x="420" y="190" as="targetPoint" />
            <mxPoint as="offset" />
          </mxGeometry>
        </mxCell>
        <mxCell id="qVcCqozDAweR0QlI1ANQ-25" value="PlayerCard()" style="html=1;verticalAlign=bottom;endArrow=block;edgeStyle=orthogonalEdgeStyle;elbow=vertical;rounded=0;" edge="1" parent="1">
          <mxGeometry x="0.0323" y="10" relative="1" as="geometry">
            <mxPoint x="445" y="180" as="sourcePoint" />
            <Array as="points">
              <mxPoint x="445" y="181" />
              <mxPoint x="505" y="181" />
              <mxPoint x="505" y="210" />
            </Array>
            <mxPoint x="440" y="210" as="targetPoint" />
            <mxPoint as="offset" />
          </mxGeometry>
        </mxCell>
        <mxCell id="qVcCqozDAweR0QlI1ANQ-26" value="GetHand()" style="html=1;verticalAlign=bottom;endArrow=block;edgeStyle=orthogonalEdgeStyle;elbow=vertical;rounded=0;" edge="1" parent="1">
          <mxGeometry x="0.0323" y="10" relative="1" as="geometry">
            <mxPoint x="655" y="240" as="sourcePoint" />
            <Array as="points">
              <mxPoint x="655" y="241" />
              <mxPoint x="715" y="241" />
              <mxPoint x="715" y="270" />
            </Array>
            <mxPoint x="650" y="270" as="targetPoint" />
            <mxPoint as="offset" />
          </mxGeometry>
        </mxCell>
        <mxCell id="qVcCqozDAweR0QlI1ANQ-27" value="DefiningWinningCard()" style="html=1;verticalAlign=bottom;endArrow=block;edgeStyle=orthogonalEdgeStyle;elbow=vertical;rounded=0;" edge="1" parent="1">
          <mxGeometry x="0.0323" y="10" relative="1" as="geometry">
            <mxPoint x="445" y="250" as="sourcePoint" />
            <Array as="points">
              <mxPoint x="445" y="251" />
              <mxPoint x="505" y="251" />
              <mxPoint x="505" y="280" />
            </Array>
            <mxPoint x="440" y="280" as="targetPoint" />
            <mxPoint as="offset" />
          </mxGeometry>
        </mxCell>
        <mxCell id="qVcCqozDAweR0QlI1ANQ-28" value="GetCardStrength()" style="html=1;verticalAlign=bottom;endArrow=block;edgeStyle=elbowEdgeStyle;elbow=vertical;curved=0;rounded=0;" edge="1" parent="1">
          <mxGeometry x="0.0036" relative="1" as="geometry">
            <mxPoint x="440" y="470" as="sourcePoint" />
            <Array as="points">
              <mxPoint x="535" y="470" />
            </Array>
            <mxPoint x="790" y="470" as="targetPoint" />
            <mxPoint as="offset" />
          </mxGeometry>
        </mxCell>
        <mxCell id="qVcCqozDAweR0QlI1ANQ-29" value="RemovePlayedCard()" style="html=1;verticalAlign=bottom;endArrow=block;edgeStyle=orthogonalEdgeStyle;elbow=vertical;rounded=0;" edge="1" parent="1">
          <mxGeometry x="0.0323" y="10" relative="1" as="geometry">
            <mxPoint x="445" y="490" as="sourcePoint" />
            <Array as="points">
              <mxPoint x="445" y="491" />
              <mxPoint x="505" y="491" />
              <mxPoint x="505" y="520" />
            </Array>
            <mxPoint x="440" y="520" as="targetPoint" />
            <mxPoint as="offset" />
          </mxGeometry>
        </mxCell>
        <mxCell id="qVcCqozDAweR0QlI1ANQ-30" value="Player" style="shape=umlLifeline;perimeter=lifelinePerimeter;whiteSpace=wrap;html=1;container=0;dropTarget=0;collapsible=0;recursiveResize=0;outlineConnect=0;portConstraint=eastwest;newEdgeStyle={&quot;edgeStyle&quot;:&quot;elbowEdgeStyle&quot;,&quot;elbow&quot;:&quot;vertical&quot;,&quot;curved&quot;:0,&quot;rounded&quot;:0};" vertex="1" parent="1">
          <mxGeometry x="890" y="40" width="140" height="600" as="geometry" />
        </mxCell>
        <mxCell id="qVcCqozDAweR0QlI1ANQ-31" value="" style="html=1;points=[];perimeter=orthogonalPerimeter;outlineConnect=0;targetShapes=umlLifeline;portConstraint=eastwest;newEdgeStyle={&quot;edgeStyle&quot;:&quot;elbowEdgeStyle&quot;,&quot;elbow&quot;:&quot;vertical&quot;,&quot;curved&quot;:0,&quot;rounded&quot;:0};" vertex="1" parent="qVcCqozDAweR0QlI1ANQ-30">
          <mxGeometry x="65" y="480" width="10" height="100" as="geometry" />
        </mxCell>
        <mxCell id="qVcCqozDAweR0QlI1ANQ-32" value="GetHand()" style="html=1;verticalAlign=bottom;endArrow=block;edgeStyle=orthogonalEdgeStyle;elbow=vertical;rounded=0;" edge="1" parent="1">
          <mxGeometry x="0.0323" y="10" relative="1" as="geometry">
            <mxPoint x="970" y="570" as="sourcePoint" />
            <Array as="points">
              <mxPoint x="970" y="571" />
              <mxPoint x="1030" y="571" />
              <mxPoint x="1030" y="600" />
            </Array>
            <mxPoint x="965" y="600" as="targetPoint" />
            <mxPoint as="offset" />
          </mxGeometry>
        </mxCell>
        <mxCell id="qVcCqozDAweR0QlI1ANQ-33" value="Opt" style="shape=umlFrame;whiteSpace=wrap;html=1;pointerEvents=0;" vertex="1" parent="1">
          <mxGeometry x="360" y="380" width="720" height="290" as="geometry" />
        </mxCell>
        <mxCell id="qVcCqozDAweR0QlI1ANQ-34" value="[roundCards.size() == players.size()]" style="text;html=1;align=center;verticalAlign=middle;whiteSpace=wrap;rounded=0;" vertex="1" parent="1">
          <mxGeometry x="430" y="380" width="210" height="30" as="geometry" />
        </mxCell>
      </root>
    </mxGraphModel>
  </diagram>
</mxfile>
